HIERARCHY
ROOT Hips
{
	OFFSET 0.00000 0.00000 0.00000
	CHANNELS 6 Xposition Yposition Zposition Yrotation Zrotation Xrotation 
	JOINT Lumbar
	{
		OFFSET 0 0 0
		CHANNELS 3 Zrotation Xrotation Yrotation
		JOINT Neck
		{
			OFFSET 0.00 0.2701 0.00
			CHANNELS 3 Zrotation Xrotation Yrotation
			End Site
			{
				OFFSET 0.00 0.1379 0.00
			}
		}
		JOINT RightShoulder
		{
			OFFSET 0.0119 0.2289 0.1181
			CHANNELS 3 Zrotation Xrotation Yrotation
			JOINT RightElbow
			{
				OFFSET 0.00 -0.1475 0.00
				CHANNELS 2 Zrotation Yrotation
				JOINT RightWrist
				{
					OFFSET 0.00 -0.1605 0.00
					CHANNELS 2 Zrotation Xrotation
					End Site
					{
						OFFSET 0.0040 -0.1068 0.0006
					}
				}
			}
		}
		JOINT LeftShoulder
		{
			OFFSET 0.0119 0.2289 -0.1181
			CHANNELS 3 Zrotation Xrotation Yrotation
			JOINT LeftElbow
			{
				OFFSET 0.00 -0.1475 0.00
				CHANNELS 2 Zrotation Yrotation
				JOINT LeftWrist
				{
					OFFSET 0.00 -0.1605 0.00
					CHANNELS 2 Zrotation Xrotation
					End Site
					{
						OFFSET 0.0040 -0.1068 -0.0006
					}
				}
			}
		}
	}
	JOINT RightHip
	{
		OFFSET 0.0316 -0.0424 0.0458
		CHANNELS 3 Zrotation Xrotation Yrotation
		JOINT RightKnee
		{
			OFFSET 0.00 -0.2438 0.00
			CHANNELS 1 Zrotation
			JOINT RightAnkle
			{
				OFFSET 0.00 -0.2449 0.00
				CHANNELS 3 Zrotation Xrotation Yrotation
				End Site
				{
					OFFSET 0.1237 -0.0542 0.0051
				}
			}
		}
	}
	JOINT LeftHip
	{
		OFFSET 0.0316 -0.0424 -0.0458
		CHANNELS 3 Zrotation Xrotation Yrotation
		JOINT LeftKnee
		{
			OFFSET 0.00 -0.2438 0.00
			CHANNELS 1 Zrotation
			JOINT LeftAnkle
			{
				OFFSET 0.00 -0.2449 0.00
				CHANNELS 3 Zrotation Xrotation Yrotation
				End Site
				{
					OFFSET 0.1237 -0.0542 -0.0051
				}
			}
		}
	}
}
MOTION
Frames: 28
Frame Time: 0.02
-0.1935 0.57345 0.05636 265.1895 0 -7.55012 0.5681 1.895 -9.08289 -19.38242 15.63361 10.51333 53.44858 -13.80291 23.96935 134.30131 142.90421 -75.22935 -21.88693 18.1834 -6.41118 3.05053 8.59991 -74.37269 -6.72472 -0.35112 1.24851 13.61081 -11.26968 -13.00788 6.95326 1.47571 12.05999 22.66838 9.46225 -5.86226 -66.34582 4.34103 -0.03211 -4.20607
-0.19274 0.57281 0.0527 265.3689 0 -7.79978 -0.9188 2.59627 -7.81171 -16.5841 15.05979 8.65567 50.36178 -13.10199 24.15068 134.30131 143.02136 -75.22935 -21.8869 16.24211 -5.3841 3.5819 8.74864 -74.69387 -6.60956 -0.47171 1.5886 13.62575 -13.19358 -13.07201 6.88701 1.33367 12.22158 24.37868 8.9375 -5.85357 -68.25094 3.41112 0.50014 -2.656
-0.19184 0.57217 0.04877 265.55762 0 -8.08145 -2.52158 3.34035 -6.42921 -13.57696 14.35394 6.6832 47.01382 -12.32071 24.5486 134.3013 143.13311 -75.22934 -21.88685 14.13602 -4.29558 3.83087 8.89899 -75.03473 -6.50151 -0.62606 1.96288 13.62688 -15.37456 -13.16312 6.78159 1.18727 12.25118 26.14471 8.40377 -5.72244 -70.09501 2.5686 0.98869 -1.00642
-0.19099 0.57155 0.04495 265.75281 0 -8.33267 -4.07983 4.04889 -5.12606 -10.66525 13.70433 4.79401 43.7859 -11.58779 24.85776 134.3013 143.23504 -75.22934 -21.88681 12.10611 -3.24631 4.17846 9.04746 -75.3541 -6.40038 -0.75869 2.32464 13.63205 -17.31856 -13.23736 6.6929 1.04875 12.31251 27.85827 7.86068 -5.65229 -71.85811 1.76064 1.47677 0.52643
-0.19017 0.57082 0.04118 265.90449 0 -8.65545 -5.61127 4.83146 -3.69818 -7.73668 13.06879 2.76757 40.5329 -10.80231 25.1251 134.3013 143.38948 -75.22934 -21.88677 10.05826 -2.14381 4.653 9.20235 -75.72698 -6.25758 -0.91692 2.67571 13.64893 -19.78692 -13.33095 6.60913 0.88694 12.50985 29.70299 7.37449 -5.55582 -74.10662 0.63712 2.05284 2.36303
-0.18927 0.57034 0.03724 266.14766 0 -8.83411 -7.22167 5.46609 -2.5039 -4.80187 12.37459 1.00183 37.28218 -10.10882 25.53141 134.3013 143.4335 -75.22933 -21.88673 8.01657 -1.14195 4.79768 9.34297 -75.99294 -6.20189 -1.031 3.05569 13.63614 -21.21865 -13.39087 6.50557 0.76762 12.38019 31.27653 6.76828 -5.48877 -75.30893 0.18768 2.4368 3.59568
-0.18819 0.5705 0.03285 266.64921 0 -8.62 -9.03952 5.70128 -1.99486 -1.8703 11.53549 -0.01236 34.04655 -9.68167 26.26866 134.3013 143.16805 -75.22933 -21.88673 5.99484 -0.40531 4.07069 9.45238 -75.9576 -6.39657 -1.00664 3.51513 13.55979 -19.71185 -13.34866 6.35799 0.82199 11.45492 32.14712 5.82631 -5.50449 -73.76842 1.63675 2.2713 3.06282
-0.18704 0.57092 0.02831 267.24043 0 -8.25769 -10.928 5.78217 -1.72305 1.05183 10.64546 -0.75935 30.83588 -9.35153 27.13872 134.3013 142.79274 -75.22933 -21.88673 3.99401 0.22208 3.02483 9.54589 -75.81396 -6.67659 -0.9381 4.00055 13.45188 -17.15355 -13.27198 6.19153 0.91049 10.19143 32.73007 4.76641 -5.55877 -71.15259 3.75121 1.91864 1.93048
-0.18593 0.57123 0.02388 267.78576 0 -7.95313 -12.77258 5.91989 -1.33469 3.95797 9.78797 -1.63095 27.65024 -8.98203 27.94757 134.3013 142.47122 -75.22933 -21.88674 2.0084 0.88127 2.14611 9.64065 -75.72086 -6.90983 -0.89559 4.46901 13.34746 -15.08168 -13.2129 6.03313 0.94622 9.02989 33.40428 3.76281 -5.61519 -68.93849 5.5238 1.67068 1.12045
-0.18477 0.5715 0.01928 268.35498 0 -7.68675 -14.67403 6.11398 -0.97896 6.96186 8.88355 -2.49596 24.29614 -8.58964 28.76624 134.3013 142.13261 -75.22933 -21.88674 -0.09068 1.61912 1.17062 9.75974 -75.62355 -7.17672 -0.83003 4.96153 13.2852 -12.97973 -13.14712 5.87595 1.13464 8.07519 34.24776 2.74151 -5.5874 -67.08147 7.46632 1.3391 0.10644
-0.1837 0.5719 0.015 268.8933 0 -7.30965 -16.46862 6.15508 -0.61342 9.75135 8.06982 -3.30632 21.30921 -8.26915 29.59483 134.3013 141.80436 -75.22933 -21.88674 -1.94227 2.16499 0.31602 9.82556 -75.5082 -7.39416 -0.80041 5.4083 13.13183 -10.69135 -13.0861 5.71178 1.0187 6.62012 34.66895 1.73667 -5.74187 -64.23635 9.21139 1.13686 -0.63011
-0.18282 0.57265 0.01155 269.34432 0 -6.62503 -17.98059 5.79712 -0.16094 11.99837 7.49155 -4.05957 19.27391 -8.12313 30.40366 134.3013 141.52505 -75.22933 -21.88674 -3.14801 2.21851 -0.05157 9.73787 -75.37719 -7.45009 -0.8905 5.73395 12.69994 -8.11239 -13.05241 5.53779 0.00561 3.79178 34.00009 0.74167 -6.42458 -58.84068 10.25115 1.34513 -0.4227
-0.18202 0.57352 0.00844 269.75754 0 -5.84121 -19.376 5.29314 0.30846 14.0197 7.01226 -4.76132 17.61955 -8.04672 31.21975 134.3013 141.26138 -75.22933 -21.88674 -4.09836 2.08015 -0.29896 9.59914 -75.23085 -7.45407 -1.01626 6.01042 12.18384 -5.38977 -13.0238 5.35713 -1.30673 0.48876 32.91574 -0.22088 -7.2837 -52.50713 11.06782 1.68851 0.07836
-0.18121 0.5743 0.00523 270.17471 0 -5.12737 -20.8052 4.86498 0.76863 16.11271 6.50611 -5.46719 15.82845 -7.93888 32.04075 134.3013 140.99462 -75.22933 -21.88674 -5.14363 2.02214 -0.64946 9.49041 -75.08557 -7.48444 -1.11926 6.30153 11.72926 -2.74962 -12.98853 5.17598 -2.44929 -2.55101 32.01642 -1.15565 -8.03998 -46.65499 11.98506 1.96569 0.42395
-0.1803 0.57522 0.00176 270.65017 0 -4.30254 -22.31965 4.39083 1.22801 18.33731 5.92095 -6.24451 13.88271 -7.83291 32.831 134.3013 140.70632 -75.22933 -21.88676 -6.27799 1.98952 -0.80721 9.35201 -74.95888 -7.50591 -1.24863 6.62576 11.17602 0.01127 -12.96912 5.00724 -3.72992 -5.81443 31.1193 -2.27303 -8.89274 -40.51903 12.93102 2.25788 0.84135
-0.17962 0.57589 -0.00107 270.99492 0 -3.68817 -23.62575 3.98068 1.69501 20.23259 5.52534 -6.86514 12.35142 -7.73906 33.68636 134.3013 140.46895 -75.22933 -21.88673 -7.16583 1.85956 -1.33287 9.26399 -74.79446 -7.53263 -1.33182 6.86943 10.80792 2.52647 -12.91997 4.81356 -4.79871 -8.70639 30.12745 -3.00213 -9.58658 -34.78218 13.75297 2.55171 1.18709
-0.17957 0.57584 -0.00225 270.98009 0 -3.67168 -24.40237 3.77596 2.18902 21.287 5.62225 -7.05843 11.85371 -7.65502 34.70789 134.3013 140.36101 -75.22931 -21.88656 -7.43911 1.51164 -2.90999 9.32345 -74.50179 -7.5848 -1.28198 6.89846 10.97789 4.44882 -12.77351 4.53404 -5.16909 -10.57349 28.93612 -2.65535 -9.79336 -30.24003 14.30523 2.83207 1.26276
-0.17975 0.57553 -0.0028 270.83598 0 -3.87224 -24.96946 3.64272 2.68912 22.01476 5.90759 -7.09817 11.76323 -7.58139 35.79512 134.30129 140.30558 -75.22929 -21.88635 -7.47211 1.07287 -4.85906 9.43618 -74.17694 -7.6439 -1.18445 6.84865 11.33568 6.0912 -12.59968 4.23357 -5.32073 -12.02683 27.67282 -1.92097 -9.83515 -26.16328 14.73352 3.10777 1.25937
-0.17982 0.57534 -0.0036 270.75582 0 -3.97956 -25.62112 3.48223 3.18132 22.8841 6.11186 -7.2147 11.49766 -7.50704 36.86077 134.30129 140.23171 -75.22927 -21.88617 -7.61324 0.67286 -6.63175 9.52739 -73.88623 -7.70055 -1.10636 6.83772 11.60408 7.77723 -12.44776 3.95453 -5.60279 -13.59105 26.46965 -1.37048 -9.95529 -21.96813 15.20346 3.37637 1.29526
-0.17993 0.57517 -0.00452 270.65264 0 -4.06193 -26.31487 3.2947 3.69677 23.77685 6.30207 -7.30094 11.20292 -7.41881 37.89635 134.30128 140.13602 -75.22925 -21.88595 -7.7515 0.27405 -8.43011 9.60569 -73.51451 -7.75258 -1.03726 6.81269 11.88819 9.82161 -12.25622 3.62351 -5.77635 -15.49757 25.13524 -0.78435 -10.06633 -17.34484 15.72859 3.68755 1.32636
-0.18001 0.5749 -0.00506 270.56695 0 -4.24735 -26.87125 3.18207 4.1636 24.54334 6.56281 -7.41292 11.06113 -7.36035 39.00434 134.30128 140.09731 -75.22923 -21.8858 -7.84005 -0.14291 -10.26659 9.72389 -73.3016 -7.81643 -0.93973 6.79835 12.18323 11.05136 -12.14038 3.39766 -6.105 -16.58691 24.0635 -0.18317 -10.15617 -13.73826 16.1115 3.90835 1.34556
-0.18003 0.57445 -0.00475 270.56194 0 -4.6804 -27.11165 3.26246 4.50759 25.06589 6.99118 -7.64783 11.23736 -7.38771 40.3434 134.30128 140.20972 -75.22923 -21.88581 -7.86787 -0.61604 -12.0986 9.94194 -73.55655 -7.91201 -0.75694 6.8384 12.48113 10.09759 -12.24316 3.45203 -7.0457 -15.51639 23.72966 0.38571 -10.21414 -12.81642 16.13745 3.8699 1.34459
-0.18002 0.57392 -0.0041 270.57809 0 -5.20726 -27.21904 3.41573 4.80005 25.46871 7.48015 -7.91161 11.55279 -7.4436 41.74318 134.30128 140.37636 -75.22924 -21.88588 -7.85189 -1.09817 -13.9574 10.19789 -73.9684 -8.01908 -0.55016 6.89137 12.78079 8.33526 -12.42285 3.61567 -8.12614 -13.63715 23.66608 0.95272 -10.25722 -12.9093 16.02466 3.74163 1.33384
-0.18001 0.57343 -0.0036 270.5855 0 -5.68091 -27.38034 3.5341 5.10749 25.91179 7.92823 -8.15304 11.80521 -7.48144 43.08543 134.30128 140.51374 -75.22925 -21.88592 -7.84565 -1.55647 -15.82036 10.43515 -74.29455 -8.12098 -0.36661 6.93475 13.0675 6.94146 -12.565 3.7396 -9.05321 -12.12748 23.48367 1.50618 -10.31636 -12.54688 15.97277 3.66136 1.33099
-0.18008 0.57288 -0.0031 270.58864 0 -6.20627 -27.56309 3.66276 5.45049 26.40489 8.43865 -8.42783 12.06956 -7.53934 44.56049 134.30128 140.67244 -75.22925 -21.88596 -7.87394 -2.10086 -17.63879 10.68107 -74.68077 -8.22399 -0.13056 6.9901 13.41085 5.52541 -12.71575 3.82157 -10.34428 -10.59108 23.28 2.1323 -10.3344 -12.17093 15.92518 3.5522 1.31247
-0.17996 0.57246 -0.00251 270.6024 0 -6.64396 -27.67078 3.78591 5.70747 26.76739 8.832 -8.64228 12.33863 -7.56437 45.76732 134.30129 140.79891 -75.22926 -21.88603 -7.82288 -2.46754 -19.53703 10.91649 -74.97905 -8.32593 0.00269 7.02579 13.63567 3.97743 -12.86895 4.01616 -10.92314 -8.92866 23.1878 2.6037 -10.43189 -12.06379 15.83776 3.48002 1.32341
-0.17931 0.57248 -0.00178 270.6823 0 -6.81054 -27.61753 3.87987 5.73512 26.81862 8.87884 -8.68125 12.56784 -7.4727 46.25786 134.30129 140.82243 -75.22928 -21.8862 -7.56653 -2.33435 -21.76833 11.12007 -75.00078 -8.43442 -0.16653 6.99458 13.51924 2.17718 -12.99546 4.50404 -9.41545 -7.07401 23.32124 2.62813 -10.7946 -12.40352 15.67152 3.54677 1.43277
-0.17847 0.57264 -0.00098 270.76403 0 -6.88562 -27.49151 3.96462 5.67795 26.73977 8.80641 -8.65948 12.79813 -7.35109 46.46561 134.30129 140.81117 -75.22929 -21.8864 -7.23264 -2.02257 -24.05278 11.31024 -74.92798 -8.5394 -0.43789 6.94531 13.28495 0.28964 -13.12473 5.09998 -7.20296 -5.13045 23.56088 2.49871 -11.23148 -12.98576 15.47131 3.65003 1.56894
